<svg xmlns="http://www.w3.org/2000/svg" version="1.1" viewBox="0 0 512 512">
  <!-- Generator: Adobe Illustrator 28.7.1, SVG Export Plug-In . SVG Version: 1.2.0 Build 142)  -->
  <g>
    <g id="Layer_1">
      <g>
        <path d="M123.1,166.2c29.8,0,54-24.2,54-54s-24.2-54-54-54-54,24.2-54,54,24.2,54,54,54ZM123.1,94.1c9.9,0,18,8.1,18,18s-8.1,18-18,18-18-8.1-18-18,8.1-18,18-18Z"/>
        <path d="M510.4,257.8c-5.7-5.3-11.5-10.6-17.2-15.9l-67.4-67.4h0c-17.7-17.7-46.2-17.7-63.7-.1l-148.3,148.3-76.2-76.2c-17.7-17.6-46.2-17.6-63.7,0l-63.9,63.8c.1,1.2.3,2.2.5,3.1,0,0,0,0-.1,0,24.9,113.1,125.7,197.8,246.2,197.8s169.5-62.4,186.6-82.2c41.7-44.9,67.3-105.1,67.3-171.2ZM49.7,321.6l49.7-49.7c3.5-3.5,9.2-3.5,12.7,0l76.2,76.2-73.8,73.8c-30.2-26.4-53-61-64.9-100.3ZM144,443.5l243.7-243.6c3.5-3.5,9.2-3.5,12.7,0l73.5,73.5c-3.2,44.1-19.7,84.6-45.5,117.4,0,0-.2-.2-.2-.2-42.1,50.8-101.5,84.5-171.4,84.5s-79.8-11.6-112.6-31.7Z"/>
      </g>
    </g>
  </g>
</svg>